<svg xmlns="http://www.w3.org/2000/svg" xmlns:xlink="http://www.w3.org/1999/xlink" viewBox="0 0 955.38 299.1"><defs><style>.cls-1{fill:url(#linear-gradient);}.cls-2{fill:#6b51a1;}.cls-3{fill:#327afc;}.cls-4{fill:url(#linear-gradient-2);}.cls-5{fill:url(#linear-gradient-3);}.cls-6{fill:url(#linear-gradient-4);}.cls-7{fill:url(#linear-gradient-5);}.cls-8{fill:url(#linear-gradient-6);}.cls-9{fill:url(#linear-gradient-7);}.cls-10{fill:url(#linear-gradient-8);}.cls-11{fill:url(#linear-gradient-9);}.cls-12{fill:url(#linear-gradient-10);}.cls-13{fill:url(#linear-gradient-11);}.cls-14{fill:url(#linear-gradient-12);}.cls-15{fill:url(#linear-gradient-13);}.cls-16{fill:url(#linear-gradient-14);}.cls-17{fill:url(#linear-gradient-15);}</style><linearGradient id="linear-gradient" x1="234.75" y1="161.99" x2="250.98" y2="209.15" gradientUnits="userSpaceOnUse"><stop offset="0" stop-color="#327afc"/><stop offset="0.38" stop-color="#337cfb"/><stop offset="0.55" stop-color="#3784f9"/><stop offset="0.68" stop-color="#3f90f5"/><stop offset="0.79" stop-color="#49a2ef"/><stop offset="0.89" stop-color="#56bae7"/><stop offset="0.98" stop-color="#66d7de"/><stop offset="1" stop-color="#6bdfdb"/></linearGradient><linearGradient id="linear-gradient-2" x1="25.18" y1="189.96" x2="99.29" y2="216.42" gradientUnits="userSpaceOnUse"><stop offset="0" stop-color="#327afc"/><stop offset="0.19" stop-color="#347efb"/><stop offset="0.4" stop-color="#3b8af7"/><stop offset="0.6" stop-color="#479ff0"/><stop offset="0.8" stop-color="#57bce7"/><stop offset="1" stop-color="#6bdfdb"/></linearGradient><linearGradient id="linear-gradient-3" x1="162.07" y1="146.68" x2="277.07" y2="146.68" xlink:href="#linear-gradient"/><linearGradient id="linear-gradient-4" x1="151.54" y1="93.03" x2="40.74" y2="53.92" gradientUnits="userSpaceOnUse"><stop offset="0" stop-color="#327afc"/><stop offset="0.17" stop-color="#3580fa"/><stop offset="0.39" stop-color="#3e8ff5"/><stop offset="0.63" stop-color="#4daaec"/><stop offset="0.89" stop-color="#61cee1"/><stop offset="1" stop-color="#6bdfdb"/></linearGradient><linearGradient id="linear-gradient-5" x1="374.86" y1="188.59" x2="364.51" y2="57.73" gradientUnits="userSpaceOnUse"><stop offset="0" stop-color="#327afc"/><stop offset="0.26" stop-color="#347dfb"/><stop offset="0.45" stop-color="#3986f8"/><stop offset="0.61" stop-color="#4296f3"/><stop offset="0.77" stop-color="#4eacec"/><stop offset="0.91" stop-color="#5fc9e2"/><stop offset="1" stop-color="#6bdfdb"/></linearGradient><linearGradient id="linear-gradient-6" x1="258.5" y1="143.24" x2="441.97" y2="143.24" gradientUnits="userSpaceOnUse"><stop offset="0.5" stop-color="#327afc"/><stop offset="0.72" stop-color="#337cfb"/><stop offset="0.81" stop-color="#3783f9"/><stop offset="0.86" stop-color="#3e8ef5"/><stop offset="0.91" stop-color="#479ff0"/><stop offset="0.95" stop-color="#53b5e9"/><stop offset="0.98" stop-color="#63d0e0"/><stop offset="1" stop-color="#6bdfdb"/></linearGradient><linearGradient id="linear-gradient-7" x1="381.94" y1="145.9" x2="418.89" y2="220.11" gradientUnits="userSpaceOnUse"><stop offset="0" stop-color="#6bdfdb"/><stop offset="0.22" stop-color="#6bdcdb"/><stop offset="0.38" stop-color="#6bd3d9"/><stop offset="0.52" stop-color="#6cc3d6"/><stop offset="0.65" stop-color="#6cadd3"/><stop offset="0.77" stop-color="#6d90ce"/><stop offset="0.89" stop-color="#6e6dc8"/><stop offset="1" stop-color="#6f43c1"/><stop offset="1" stop-color="#6f42c1"/></linearGradient><linearGradient id="linear-gradient-8" x1="631.18" y1="142.38" x2="490.35" y2="141.46" gradientUnits="userSpaceOnUse"><stop offset="0" stop-color="#327afc"/><stop offset="0.17" stop-color="#3783f9"/><stop offset="0.43" stop-color="#449af1"/><stop offset="0.77" stop-color="#5ac0e5"/><stop offset="1" stop-color="#6bdfdb"/></linearGradient><linearGradient id="linear-gradient-9" x1="441.97" y1="172.31" x2="631.83" y2="172.31" xlink:href="#linear-gradient-6"/><linearGradient id="linear-gradient-10" x1="641.63" y1="9.41" x2="671.24" y2="63.22" xlink:href="#linear-gradient-8"/><linearGradient id="linear-gradient-11" x1="718.76" y1="152.91" x2="754.76" y2="213.21" xlink:href="#linear-gradient-5"/><linearGradient id="linear-gradient-12" x1="954.55" y1="142.37" x2="813.72" y2="141.46" xlink:href="#linear-gradient-8"/><linearGradient id="linear-gradient-13" x1="642.21" y1="171.78" x2="954.89" y2="171.78" xlink:href="#linear-gradient-6"/><linearGradient id="linear-gradient-14" x1="222.36" y1="13.63" x2="171.08" y2="86.17" xlink:href="#linear-gradient-4"/><linearGradient id="linear-gradient-15" x1="208.57" y1="71.6" x2="255.99" y2="71.6" gradientUnits="userSpaceOnUse"><stop offset="0" stop-color="#6bdfdb"/><stop offset="0.02" stop-color="#63d0e0"/><stop offset="0.05" stop-color="#53b5e9"/><stop offset="0.09" stop-color="#479ff0"/><stop offset="0.14" stop-color="#3e8ef5"/><stop offset="0.19" stop-color="#3783f9"/><stop offset="0.28" stop-color="#337cfb"/><stop offset="0.5" stop-color="#327afc"/></linearGradient></defs><g id="Layer_2" data-name="Layer 2"><g id="Layer_1-2" data-name="Layer 1"><path class="cls-1" d="M266,180.06l-.26-.71c-2.14,3.22-8.58,12-19.76,15.53a36.07,36.07,0,0,1-10.48,1.61,34.51,34.51,0,0,1-13.2-2.59,15.27,15.27,0,0,1-2.61-1.14,36.43,36.43,0,0,0,49.93-4.19Q267.6,184.46,266,180.06Z"/><path class="cls-2" d="M102.66,185A56.15,56.15,0,0,1,67.2,237.18a139.6,139.6,0,0,1-67.2-21,49.17,49.17,0,0,1,55.79-24.38,126.63,126.63,0,0,0,18.49,3.57s14.53,1.48,22.29-4.3a13.66,13.66,0,0,0,5.78-11.56c0-.23,0-.47,0-.7A56,56,0,0,1,102.66,185Z"/><path class="cls-3" d="M148.9,178.91q0,29.06-19.64,43.75t-55,14.68c-1.82,0-4.21,0-7.08-.16a56.21,56.21,0,0,0,35.13-58.32c0-.3-.06-.6-.11-.9q-1-6.22-9.93-10.77a149.48,149.48,0,0,0-24.44-9.42q-14.37-4.26-28.72-9.89a63.74,63.74,0,0,1-19.72-12.1A66.11,66.11,0,0,1,14.68,131Q4.62,119.82,4.62,103.62,4.62,76.16,25.07,61h0c.31-.24.63-.47.95-.68.64-.46,1.28-.91,1.93-1.34q1.2-.81,2.4-1.56s1.17-.72,2.38-1.41c.33-.18.79-.42,1.37-.71a56.13,56.13,0,0,1,25-5.78H70.46a35.09,35.09,0,0,0-17.64,56.07,11,11,0,0,0,1.53,1.74l0,0a26.24,26.24,0,0,0,7.21,4.41,183,183,0,0,0,17.68,6.64c2.17.71,4.41,1.41,6.75,2.1a261.81,261.81,0,0,1,28.55,10.42,63.68,63.68,0,0,1,24.27,18.32Q148.91,161.41,148.9,178.91Z"/><path class="cls-4" d="M102.66,185A56.15,56.15,0,0,1,67.2,237.18a139.6,139.6,0,0,1-67.2-21,49.17,49.17,0,0,1,55.79-24.38,126.63,126.63,0,0,0,18.49,3.57s14.53,1.48,22.29-4.3a13.66,13.66,0,0,0,5.78-11.56c0-.23,0-.47,0-.7A56,56,0,0,1,102.66,185Z"/><path class="cls-5" d="M277.07,201.44a60.7,60.7,0,0,1-13.66,20.84,59.76,59.76,0,0,1-21.6,13.66,89.55,89.55,0,0,1-16.61,2.21q-15.19,0-26.62-4.61c-.85-.33-1.66-.68-2.47-1q-12.21-5.67-18.67-14.14t-10.08-22.3a138.8,138.8,0,0,1-4.46-25.62c-.55-7.86-.83-17.58-.83-29.11V55.21a47.49,47.49,0,0,0,46.6,38.33v65.07a70.67,70.67,0,0,0,2.15,20.48s2.5,9.34,7.43,12.8l.28.18a1.46,1.46,0,0,0,.29.17l.76.46h0a36.37,36.37,0,0,0,50-4.2A84.26,84.26,0,0,0,275.39,199C276,199.82,276.5,200.64,277.07,201.44Z"/><path class="cls-6" d="M162.34,49.48V93.74h-103a7.85,7.85,0,0,0-7.86,7.83v.09a6.66,6.66,0,0,0,1.32,3.9A35.09,35.09,0,0,1,70.46,49.48Z"/><path class="cls-7" d="M371.49,75.49a66.44,66.44,0,0,0-63.77,47.79,45.72,45.72,0,0,1,33.71-30.81q14.22-3.24,23.72-.31a23.9,23.9,0,0,1,6.52,3.09q8,5.44,11.25,12.42a4.25,4.25,0,0,1-3,5.85l-67.2,15.27a4.28,4.28,0,0,1-5.14-5.06,66.61,66.61,0,0,0,7.22,52.83,9.38,9.38,0,0,1-.82-4,11.16,11.16,0,0,1,2.95-6.85l104.67-23.78a19.61,19.61,0,0,0,14.73-14.47A66.46,66.46,0,0,0,371.49,75.49Z"/><path class="cls-8" d="M442,174.29v29.49c-24.43,24.58-54.3,31.2-59.7,32.33-6.34,1.31-54.44,10.55-89.86-18.13a83.7,83.7,0,0,1-9.09-8.56,80.31,80.31,0,0,1-6.4-8.18l-.53-.77q-.6-.84-1.14-1.68a92.57,92.57,0,0,1-5.82-10.44q-2-4.11-3.61-8.51a119.21,119.21,0,0,1-4.45-15c-.34-1.49-.64-3-.91-4.42-.13-.66-.25-1.33-.35-2A101.48,101.48,0,0,1,258.87,132c.2-2.21.48-4.4.83-6.55a88.33,88.33,0,0,1,13.14-33.81q20.75-32.32,60-41.25A94.22,94.22,0,0,1,351.67,48a81.36,81.36,0,0,1,45.67,12.66c16.62,10.3,24.5,24.53,29,32.62a104.48,104.48,0,0,1,9.94,25,18.86,18.86,0,0,1,.05,9.26,66.44,66.44,0,0,0-128.62-4.18l0,0,0,.08c0,.11-.06.21-.08.32a66.61,66.61,0,0,0,7.22,52.83v0a16,16,0,0,0,2.94,4.38h0c6.11,6.75,18.38,12.2,26.92,14.75a70.68,70.68,0,0,0,12.75,2.53l.83.08.81.08c3.47.3,7,.46,10.52.46A118.27,118.27,0,0,0,442,174.29Z"/><path class="cls-9" d="M442,168v6.26a118.27,118.27,0,0,1-72.38,24.58c-3.55,0-7-.16-10.52-.46,28.09,2.35,54.48-11.37,67.65-19.56,3.66-2.28,6.3-4.13,7.67-5.1C437.19,171.79,439.72,169.86,442,168Z"/><path class="cls-10" d="M631.52,129.6h0c-5.74-34.23-35-60.28-70.15-60.28-31.94,0-59,21.46-68,51a49.39,49.39,0,0,1,6.09-11.88,47.36,47.36,0,0,1,4.1-5.14q13.53-14.85,34-14.87t34,14.87a52,52,0,0,1,3.83,4.75q9.71,13.65,9.71,33.22a61.08,61.08,0,0,1-3.8,22.1,49.24,49.24,0,0,1-9.74,15.87q-13.53,14.85-34,14.85t-34-14.85a50.84,50.84,0,0,1-12.48-25.66c5.47,34.56,34.84,60.95,70.26,60.95,34.68,0,63.57-25.31,69.89-58.82a135,135,0,0,0,.76-14.44Q632,135.28,631.52,129.6Z"/><path class="cls-11" d="M631.6,153.72q-3.17,34.17-24.21,56.89Q582.63,237.34,543,237.35q-32.7,0-52.83-20.13v33.67A48.21,48.21,0,0,1,442,299.1V97.68A48.22,48.22,0,0,1,484.59,49.8a49.08,49.08,0,0,1,5.59-.32V65.33Q510,45.52,543,45.52q39.62,0,64.38,26.58,21.93,23.52,24.44,59.55c-4.89-35.24-34.58-62.35-70.47-62.35-33.41,0-61.44,23.48-69.1,55.15,0,.06,0,.13-.05.19a64.89,64.89,0,0,0-2,16.34,2.81,2.81,0,0,0,0,.29v.65c0,40.1,31.87,72.61,71.18,72.61C596.73,214.53,626.06,188.21,631.6,153.72Z"/><path class="cls-2" d="M637.78,78.89V79h0Z"/><path class="cls-12" d="M699.21,38.9a43.67,43.67,0,0,0-61.42,38.69l.93-75.26Z"/><path class="cls-13" d="M765.37,167.28v17.51l-.2.26a41.19,41.19,0,0,1-32.42,15.74,41.79,41.79,0,0,1-20.16-5.15A41.22,41.22,0,0,1,698.17,182a25.3,25.3,0,0,1-3-5.52c.19-.11,2.49,6.5,8.69,10.92,6.8,4.85,15.65,5.21,17.08,5.26.38,0,.78,0,1.19,0q15.51,0,26.92-6.77a38.41,38.41,0,0,0,15.89-17.64c.09-.18.16-.36.25-.55l0-.08Z"/><path class="cls-14" d="M954.89,129.59h0c-5.75-34.23-35-60.28-70.15-60.28-31.94,0-59,21.47-68,51a49.79,49.79,0,0,1,6.1-11.88A48.51,48.51,0,0,1,827,103.3q13.54-14.85,34-14.87t34,14.87a50.61,50.61,0,0,1,3.84,4.76q9.69,13.64,9.71,33.21a61,61,0,0,1-3.8,22.1A49.1,49.1,0,0,1,895,179.24q-13.51,14.85-34,14.85t-34-14.85a50.83,50.83,0,0,1-12.47-25.66c5.47,34.56,34.84,60.95,70.26,60.95,34.68,0,63.57-25.31,69.89-58.82a135,135,0,0,0,.75-14.44Q955.38,135.27,954.89,129.59Z"/><path class="cls-15" d="M954.63,155.71q-3.58,32.83-24,54.9-24.78,26.73-64.38,26.73-32.7,0-52.83-20.13v33.68A48.21,48.21,0,0,1,765.2,299.1v-91l0,.05c-.09.1-.16.2-.25.29a73.22,73.22,0,0,1-26.64,20.75,85.57,85.57,0,0,1-13.31,5,1.17,1.17,0,0,1-.2.05,96.17,96.17,0,0,1-17.33,2.66h-.51l-.63,0h-2.42c-.49,0-1,0-1.49-.06q-23.14-1.11-41-18.26a58.93,58.93,0,0,1-8.09-9.48Q642.21,193,642.21,169.91V92.66a48.2,48.2,0,0,1,48.2-48.2v105a75.26,75.26,0,0,0,2.66,21.37c0,.19.11.38.17.57l.15.51a43.19,43.19,0,0,0,1.76,4.6h0a42.29,42.29,0,0,0,2.85,5.26l0,.07c.58.89,1.19,1.77,1.84,2.62l.23.3a41.23,41.23,0,0,0,26.61,15.58l.13,0,.78.1.84.1.83.08h0l.77,0h.18l.66,0h.2l.73,0h.86l1.07,0H734l.87,0,.51,0,.91-.07c.8-.07,1.58-.16,2.36-.27l.82-.13h.07l.74-.13c1.16-.21,2.3-.47,3.43-.77l.78-.23.1,0,1.12-.35,1.11-.38c.36-.14.73-.27,1.08-.42l.94-.38.21-.09.78-.35a38.56,38.56,0,0,0,3.93-2q.25-.13.51-.3c.47-.28.93-.58,1.39-.89l.62-.42c.46-.32.92-.66,1.37-1l.46-.36a0,0,0,0,0,0,0c.22-.17.44-.34.65-.52s.52-.42.77-.63l.48-.43c.34-.29.67-.59,1-.89l0,0,.44-.42.69-.68.72-.75c.16-.17.32-.35.47-.53s.48-.53.71-.8l.46-.54q.32-.37.63-.78l.2-.26V92.65A48.2,48.2,0,0,1,768.71,75c.09-.23.18-.45.28-.68a48.22,48.22,0,0,1,44.42-29.44V65.33l.15-.16c.11-.1.22-.21.33-.3q19.71-19.35,52.35-19.35,21.22,0,38.22,7.67A80.47,80.47,0,0,1,930.62,72.1a88.37,88.37,0,0,1,20.24,35.69,110.4,110.4,0,0,1,4,21.79c-5.75-34.23-35-60.28-70.15-60.28-31.94,0-59,21.46-68,51h0a59.69,59.69,0,0,0-3.2,16.31c-.11,1.51-.15,3.06-.15,4.63s0,3.13.15,4.63c.13,2.18.36,4.28.68,6.33.07.41.14.82.22,1.23,0,0,0,.08,0,.12,5.47,34.56,34.84,60.95,70.26,60.95,30.82,0,54.28-21.4,63.43-39.65A78.76,78.76,0,0,0,954.63,155.71Z"/><path class="cls-16" d="M208.67,94.64a47.34,47.34,0,0,1-46.33-38.2V50.38c0-.47-.05-1.6,0-3,1.06-21,22.09-41.43,43.27-46.7,1.52-.37,2.75-.6,3.14-.67Q208.73,47.33,208.67,94.64Z"/><path class="cls-17" d="M256,93.74H208.57V49.48c.8,0,2,0,3.31,0a65.46,65.46,0,0,1,11.94,1.34c10.08,2.3,18.19,10.3,19.24,11.36a44.3,44.3,0,0,1,6.37,8.11c.45.72.88,1.47,1.31,2.28a43.91,43.91,0,0,1,2.78,6.34A44.76,44.76,0,0,1,256,93.74Z"/><path class="cls-3" d="M699.34,39a54.07,54.07,0,0,0-37,6.41C643.47,56.58,638.6,75.53,637.78,79v-.21c0-.37,0-.75,0-1.13v-.06A43.67,43.67,0,0,1,699.21,38.9Z"/><path class="cls-3" d="M510.75,281.84a3.56,3.56,0,0,1,2.8,1.21,3.7,3.7,0,0,1,.92,2.91,4.18,4.18,0,0,1-1.68,2.92c-1.78,1.48-4.55,2.23-8.33,2.23q-6.49,0-10.09-3.33a10.89,10.89,0,0,1-3.4-8.44,11.2,11.2,0,0,1,3.09-8.22c2.39-2.45,5.84-3.67,10.32-3.67q6.33,0,9.62,3.24l0,0a2.86,2.86,0,0,1,.84,1.65,3.09,3.09,0,0,1-.2,1.72,3.23,3.23,0,0,1-1.11,1.35,3,3,0,0,1-1.76.56h-1.14q-1.37-4.1-6.25-4.1a7.21,7.21,0,0,0-5.63,2.23,7.52,7.52,0,0,0-1.84,5.27,7.29,7.29,0,0,0,1.84,5.21,7,7,0,0,0,5.39,2.07,6.56,6.56,0,0,0,4.74-1.6A7.93,7.93,0,0,0,510.75,281.84Z"/><path class="cls-3" d="M543.76,279.34a11,11,0,0,1-3,8.09q-3.57,3.68-10.6,3.68-6.69,0-10.25-3.37a12.39,12.39,0,0,1-.11-16.85q3.56-3.43,10.28-3.44,7,0,10.64,3.67A11.3,11.3,0,0,1,543.76,279.34Zm-6-.06q0-7.38-7.54-7.37a8,8,0,0,0-5.59,1.8,8.45,8.45,0,0,0-.12,11.06,8,8,0,0,0,5.71,1.88Q537.78,286.65,537.77,279.28Z"/><path class="cls-3" d="M564.48,291.11V277.54a6,6,0,0,0-1-3.8c-.89-1.09-2.45-1.64-4.7-1.64a7,7,0,0,0-5.75,2.39,6.71,6.71,0,0,0-1.48,4.42v6.21a6,6,0,0,1-6,6v-17a6,6,0,0,1,6-6v3.64h.08a7.08,7.08,0,0,1,3.59-3.17,14.3,14.3,0,0,1,5.83-1.13c3.42,0,5.93.91,7.55,2.74a8.59,8.59,0,0,1,1.88,5.78v9.15a6,6,0,0,1-6,6Z"/><path class="cls-3" d="M596,283.83a6,6,0,0,1-3.05,5.42q-3,1.86-9,1.86c-4.17,0-7.28-.68-9.31-2l0,0a2.86,2.86,0,0,1-1.33-2.22,3.1,3.1,0,0,1,.75-2.35,3.05,3.05,0,0,1,2.38-1.06h1.41c.16,2.53,2.2,3.8,6.14,3.8a10.31,10.31,0,0,0,4.18-.71,2.34,2.34,0,0,0,1.68-2.15,2,2,0,0,0-1.52-2,41.82,41.82,0,0,0-5.48-1,38.47,38.47,0,0,1-7.66-1.68c-1.9-.86-2.86-2.57-2.86-5.12q0-7.08,11-7.08,6.15,0,9.19,2.23l0,0a2.73,2.73,0,0,1,1.17,2.11A2.79,2.79,0,0,1,593,274a2.84,2.84,0,0,1-2.23,1h-1.6a2.94,2.94,0,0,0-1.53-2.55,8.21,8.21,0,0,0-4.53-1.09,8.06,8.06,0,0,0-3.72.74,2.22,2.22,0,0,0-1.41,2c0,.88.64,1.54,1.92,1.95a33.36,33.36,0,0,0,5.71,1,24.49,24.49,0,0,1,7,1.56A5.43,5.43,0,0,1,596,283.83Z"/><path class="cls-3" d="M616.41,290.25v-3.41a6.33,6.33,0,0,1-2.81,2.66,12.85,12.85,0,0,1-6.53,1.61q-4.62,0-7-2.15t-2.39-6.46v-9.11a5.94,5.94,0,0,1,6-5.94v13.49q0,5.55,5.7,5.55A6.8,6.8,0,0,0,615,284a6.48,6.48,0,0,0,1.41-4.11v-6.53a5.94,5.94,0,0,1,6-5.94V284.3a5.94,5.94,0,0,1-6,5.95Z"/><path class="cls-3" d="M624.31,291.11V265.77a5.94,5.94,0,0,1,6-5.95v25.34a6,6,0,0,1-6,5.95Z"/><path class="cls-3" d="M649.57,290.76a40.49,40.49,0,0,1-4.81.35q-4.14,0-6-1.37t-1.92-4.89v-13.3h-.43a4.42,4.42,0,0,1-4.42-4.41h4.85v-1.22a6.15,6.15,0,0,1,6.14-6.1v7.32h1.92a4.35,4.35,0,0,1,3.15,1.29,4.23,4.23,0,0,1,1.31,3.12H643v12.13a2.64,2.64,0,0,0,.67,2.11,3.58,3.58,0,0,0,2.35.59h0a3.52,3.52,0,0,1,3.52,3.51Z"/><path class="cls-3" d="M678.82,287.08a3.72,3.72,0,0,1-1.11,2.72,3.66,3.66,0,0,1-2.68,1.11h0c-2,0-3.38-.48-4-1.45a5.42,5.42,0,0,1-.54-1.33h-.12q-2.89,3-9.62,3c-3.57,0-6.14-.75-7.71-2.23a6.28,6.28,0,0,1-1.83-4.69q0-4,3.2-5.44a24.81,24.81,0,0,1,5.75-1.29c.84-.13,2.35-.32,4.54-.57a19.22,19.22,0,0,0,4.1-.72,1.84,1.84,0,0,0,1.37-1.84q0-3-6-3a8.86,8.86,0,0,0-4.54.9,3.9,3.9,0,0,0-1.76,2.7h-1a2.81,2.81,0,0,1-2.17-.92,3,3,0,0,1-.81-2.17,2.78,2.78,0,0,1,1.06-2.11h0q2.78-2.31,9.34-2.31,11.38,0,11.38,7v10.75a2.08,2.08,0,0,0,.12.79c.18.41.64.62,1.37.62a6,6,0,0,0,1-.08,6.56,6.56,0,0,1,.66-.08ZM670,281.53a1.66,1.66,0,0,0-1.68-1.69,3.63,3.63,0,0,0-.54.08c-1,.21-2.19.39-3.6.55a15.37,15.37,0,0,0-5.38,1.29,2.81,2.81,0,0,0-1.66,2.58,2.63,2.63,0,0,0,1.21,2.31,6.52,6.52,0,0,0,3.64.82,9.69,9.69,0,0,0,5.79-1.64A5.11,5.11,0,0,0,670,281.53Z"/><path class="cls-3" d="M699.47,291.11V277.54a5.94,5.94,0,0,0-1-3.8c-.88-1.09-2.45-1.64-4.69-1.64a7,7,0,0,0-5.75,2.39,6.71,6.71,0,0,0-1.48,4.42v6.21a6,6,0,0,1-6,6v-17a6,6,0,0,1,6-6v3.64h.07a7.15,7.15,0,0,1,3.6-3.17,14.3,14.3,0,0,1,5.83-1.13c3.41,0,5.93.91,7.54,2.74a8.54,8.54,0,0,1,1.88,5.78v9.15a6,6,0,0,1-6,6Z"/><path class="cls-3" d="M727,281.84a3.53,3.53,0,0,1,2.79,1.21,3.66,3.66,0,0,1,.92,2.91,4.11,4.11,0,0,1-1.68,2.92c-1.77,1.48-4.55,2.23-8.33,2.23q-6.5,0-10.09-3.33a10.89,10.89,0,0,1-3.4-8.44,11.2,11.2,0,0,1,3.09-8.22q3.6-3.67,10.32-3.67,6.35,0,9.62,3.24l0,0a2.86,2.86,0,0,1,.84,1.65,3,3,0,0,1-1.31,3.07,3,3,0,0,1-1.76.56H727q-1.37-4.1-6.26-4.1a7.23,7.23,0,0,0-5.63,2.23,7.57,7.57,0,0,0-1.84,5.27,7.33,7.33,0,0,0,1.84,5.21,7,7,0,0,0,5.4,2.07,6.52,6.52,0,0,0,4.73-1.6A7.83,7.83,0,0,0,727,281.84Z"/><path class="cls-3" d="M760,267.45l-11.45,24.87a18.49,18.49,0,0,1-2.82,4.89c-1.09,1.14-3.18,1.72-6.26,1.72a29.56,29.56,0,0,1-3.75-.2v-1.68a2.65,2.65,0,0,1,.78-1.93,2.56,2.56,0,0,1,1.92-.81c1.56,0,2.63-.36,3.2-1.09a26.23,26.23,0,0,0,1.84-3.44l-10.63-22.33a9.61,9.61,0,0,1,5.43,1.64,10,10,0,0,1,3.64,4.22l4.61,10.37h.16l4.5-10.4a9,9,0,0,1,3.48-4.19A9.36,9.36,0,0,1,760,267.45Z"/></g></g></svg>